<?xml version="1.0" encoding="UTF-8" standalone="no"?>
<!-- Created with Inkscape (http://www.inkscape.org/) -->

<svg
   xmlns:dc="http://purl.org/dc/elements/1.1/"
   xmlns:cc="http://creativecommons.org/ns#"
   xmlns:rdf="http://www.w3.org/1999/02/22-rdf-syntax-ns#"
   xmlns:svg="http://www.w3.org/2000/svg"
   xmlns="http://www.w3.org/2000/svg"
   xmlns:xlink="http://www.w3.org/1999/xlink"
   xmlns:sodipodi="http://sodipodi.sourceforge.net/DTD/sodipodi-0.dtd"
   xmlns:inkscape="http://www.inkscape.org/namespaces/inkscape"
   width="210mm"
   height="297mm"
   viewBox="0 0 744.09448819 1052.3622047"
   id="svg2"
   version="1.1"
   inkscape:version="0.91 r13725"
   sodipodi:docname="bborders.svg"
   inkscape:export-filename="C:\Users\X5\Desktop\cesg_prez\bcomp0.png"
   inkscape:export-xdpi="90"
   inkscape:export-ydpi="90">
  <defs
     id="defs4" />
  <sodipodi:namedview
     id="base"
     pagecolor="#ffffff"
     bordercolor="#666666"
     borderopacity="1.0"
     inkscape:pageopacity="0.0"
     inkscape:pageshadow="2"
     inkscape:zoom="1.4"
     inkscape:cx="235.00577"
     inkscape:cy="751.70459"
     inkscape:document-units="px"
     inkscape:current-layer="svg2"
     showgrid="false"
     inkscape:window-width="1920"
     inkscape:window-height="1017"
     inkscape:window-x="-8"
     inkscape:window-y="-8"
     inkscape:window-maximized="1"
     inkscape:snap-nodes="false" />
  <metadata
     id="metadata7">
    <rdf:RDF>
      <cc:Work
         rdf:about="">
        <dc:format>image/svg+xml</dc:format>
        <dc:type
           rdf:resource="http://purl.org/dc/dcmitype/StillImage" />
        <dc:title></dc:title>
      </cc:Work>
    </rdf:RDF>
  </metadata>
  <g
     inkscape:label="Vrstva 1"
     inkscape:groupmode="layer"
     id="layer1" />
  <rect
     style="opacity:1;fill:#2b0000;fill-opacity:0;stroke:#000000;stroke-width:1.24819434"
     id="rect5786"
     width="90.16346"
     height="81.53154"
     x="128.68536"
     y="125.58688"
     inkscape:tile-cx="122.22846"
     inkscape:tile-cy="155.34672"
     inkscape:tile-w="69.690376"
     inkscape:tile-h="69.690376"
     inkscape:tile-x0="87.38327"
     inkscape:tile-y0="120.50153" />
  <use
     x="0"
     y="0"
     inkscape:tiled-clone-of="#rect5786"
     xlink:href="#rect5786"
     id="use5796"
     width="100%"
     height="100%" />
  <use
     x="0"
     y="0"
     inkscape:tiled-clone-of="#rect5786"
     xlink:href="#rect5786"
     transform="translate(3.6434277e-7,82.718483)"
     id="use5798"
     width="100%"
     height="100%" />
  <use
     x="0"
     y="0"
     inkscape:tiled-clone-of="#rect5786"
     xlink:href="#rect5786"
     transform="translate(3.6434277e-7,165.43696)"
     id="use5800"
     width="100%"
     height="100%" />
  <use
     x="0"
     y="0"
     inkscape:tiled-clone-of="#rect5786"
     xlink:href="#rect5786"
     transform="translate(3.6434277e-7,248.15545)"
     id="use5802"
     width="100%"
     height="100%" />
  <use
     x="0"
     y="0"
     inkscape:tiled-clone-of="#rect5786"
     xlink:href="#rect5786"
     transform="translate(3.6434277e-7,330.87393)"
     id="use5804"
     width="100%"
     height="100%" />
  <use
     x="0"
     y="0"
     inkscape:tiled-clone-of="#rect5786"
     xlink:href="#rect5786"
     transform="translate(91.476065,2.0235946e-7)"
     id="use5806"
     width="100%"
     height="100%" />
  <use
     x="0"
     y="0"
     inkscape:tiled-clone-of="#rect5786"
     xlink:href="#rect5786"
     transform="translate(91.476065,82.718483)"
     id="use5808"
     width="100%"
     height="100%" />
  <use
     x="0"
     y="0"
     inkscape:tiled-clone-of="#rect5786"
     xlink:href="#rect5786"
     transform="translate(91.476065,165.43696)"
     id="use5810"
     width="100%"
     height="100%" />
  <use
     x="0"
     y="0"
     inkscape:tiled-clone-of="#rect5786"
     xlink:href="#rect5786"
     transform="translate(91.476065,248.15545)"
     id="use5812"
     width="100%"
     height="100%" />
  <use
     x="0"
     y="0"
     inkscape:tiled-clone-of="#rect5786"
     xlink:href="#rect5786"
     transform="translate(91.476065,330.87393)"
     id="use5814"
     width="100%"
     height="100%" />
  <use
     x="0"
     y="0"
     inkscape:tiled-clone-of="#rect5786"
     xlink:href="#rect5786"
     transform="translate(182.95212,2.0235946e-7)"
     id="use5816"
     width="100%"
     height="100%" />
  <use
     x="0"
     y="0"
     inkscape:tiled-clone-of="#rect5786"
     xlink:href="#rect5786"
     transform="translate(182.95212,82.718483)"
     id="use5818"
     width="100%"
     height="100%" />
  <use
     x="0"
     y="0"
     inkscape:tiled-clone-of="#rect5786"
     xlink:href="#rect5786"
     transform="translate(182.95212,165.43696)"
     id="use5820"
     width="100%"
     height="100%" />
  <use
     x="0"
     y="0"
     inkscape:tiled-clone-of="#rect5786"
     xlink:href="#rect5786"
     transform="translate(182.95212,248.15545)"
     id="use5822"
     width="100%"
     height="100%" />
  <use
     x="0"
     y="0"
     inkscape:tiled-clone-of="#rect5786"
     xlink:href="#rect5786"
     transform="translate(182.95212,330.87393)"
     id="use5824"
     width="100%"
     height="100%" />
  <use
     x="0"
     y="0"
     inkscape:tiled-clone-of="#rect5786"
     xlink:href="#rect5786"
     transform="translate(274.42819,2.0235946e-7)"
     id="use5826"
     width="100%"
     height="100%" />
  <use
     x="0"
     y="0"
     inkscape:tiled-clone-of="#rect5786"
     xlink:href="#rect5786"
     transform="translate(274.42819,82.718483)"
     id="use5828"
     width="100%"
     height="100%" />
  <use
     x="0"
     y="0"
     inkscape:tiled-clone-of="#rect5786"
     xlink:href="#rect5786"
     transform="translate(274.42819,165.43696)"
     id="use5830"
     width="100%"
     height="100%" />
  <use
     x="0"
     y="0"
     inkscape:tiled-clone-of="#rect5786"
     xlink:href="#rect5786"
     transform="translate(274.42819,248.15545)"
     id="use5832"
     width="100%"
     height="100%" />
  <use
     x="0"
     y="0"
     inkscape:tiled-clone-of="#rect5786"
     xlink:href="#rect5786"
     transform="translate(274.42819,330.87393)"
     id="use5834"
     width="100%"
     height="100%" />
  <use
     x="0"
     y="0"
     inkscape:tiled-clone-of="#rect5786"
     xlink:href="#rect5786"
     transform="translate(365.90424,2.0235946e-7)"
     id="use5836"
     width="100%"
     height="100%" />
  <use
     x="0"
     y="0"
     inkscape:tiled-clone-of="#rect5786"
     xlink:href="#rect5786"
     transform="translate(365.90424,82.718483)"
     id="use5838"
     width="100%"
     height="100%" />
  <use
     x="0"
     y="0"
     inkscape:tiled-clone-of="#rect5786"
     xlink:href="#rect5786"
     transform="translate(365.90424,165.43696)"
     id="use5840"
     width="100%"
     height="100%" />
  <use
     x="0"
     y="0"
     inkscape:tiled-clone-of="#rect5786"
     xlink:href="#rect5786"
     transform="translate(365.90424,248.15545)"
     id="use5842"
     width="100%"
     height="100%" />
  <use
     x="0"
     y="0"
     inkscape:tiled-clone-of="#rect5786"
     xlink:href="#rect5786"
     transform="translate(365.90424,330.87393)"
     id="use5844"
     width="100%"
     height="100%" />
  <text
     xml:space="preserve"
     style="font-style:normal;font-weight:normal;font-size:40px;line-height:125%;font-family:sans-serif;letter-spacing:0px;word-spacing:0px;fill:#000000;fill-opacity:1;stroke:none;stroke-width:1px;stroke-linecap:butt;stroke-linejoin:miter;stroke-opacity:1"
     x="62.629459"
     y="212.92542"
     id="text5846"
     sodipodi:linespacing="125%"><tspan
       sodipodi:role="line"
       id="tspan5848"
       x="62.629459"
       y="212.92542" /></text>
  <text
     xml:space="preserve"
     style="font-style:normal;font-weight:normal;font-size:40px;line-height:125%;font-family:sans-serif;letter-spacing:0px;word-spacing:0px;fill:#000000;fill-opacity:1;stroke:none;stroke-width:1px;stroke-linecap:butt;stroke-linejoin:miter;stroke-opacity:1"
     x="65.659912"
     y="214.94572"
     id="text5850"
     sodipodi:linespacing="125%"><tspan
       sodipodi:role="line"
       id="tspan5852"
       x="65.659912"
       y="214.94572" /></text>
  <path
     style="fill:none;fill-rule:evenodd;stroke:#d40000;stroke-width:4.93965769;stroke-linecap:butt;stroke-linejoin:miter;stroke-miterlimit:4;stroke-dasharray:none;stroke-opacity:1"
     d="m 130.64049,457.12211 363.3594,-1.17781 1.35399,-330.96655 -366.02547,-0.0678 z"
     id="path5860"
     inkscape:connector-curvature="0"
     sodipodi:nodetypes="ccccc" />
  <flowRoot
     xml:space="preserve"
     id="flowRoot5944"
     style="fill:black;stroke:none;stroke-opacity:1;stroke-width:1px;stroke-linejoin:miter;stroke-linecap:butt;fill-opacity:1;font-family:sans-serif;font-style:normal;font-weight:normal;font-size:40px;line-height:125%;letter-spacing:0px;word-spacing:0px"><flowRegion
       id="flowRegion5946"><rect
         id="rect5948"
         width="5.0507627"
         height="47.477169"
         x="145.46196"
         y="103.82894" /></flowRegion><flowPara
       id="flowPara5950" /></flowRoot>  <flowRoot
     xml:space="preserve"
     id="flowRoot5952"
     style="fill:black;stroke:none;stroke-opacity:1;stroke-width:1px;stroke-linejoin:miter;stroke-linecap:butt;fill-opacity:1;font-family:sans-serif;font-style:normal;font-weight:normal;font-size:40px;line-height:125%;letter-spacing:0px;word-spacing:0px"><flowRegion
       id="flowRegion5954"><rect
         id="rect5956"
         width="519.21838"
         height="446.48743"
         x="15.152288"
         y="15.945671" /></flowRegion><flowPara
       id="flowPara5958" /></flowRoot>  <path
     style="opacity:1;fill:#ffffff;fill-opacity:1;stroke:none;stroke-width:5.71400023;stroke-miterlimit:4;stroke-dasharray:none;stroke-opacity:1"
     d="m 132.83909,182.70511 c -0.002,-12.91733 -0.3003,-30.64551 -0.66322,-39.39595 l -0.65986,-15.90991 43.08963,0 43.08963,0 0,39.39595 0,39.39595 -42.4264,0 -42.42641,0 -0.003,-23.48604 z"
     id="path6143"
     inkscape:connector-curvature="0" />
  <path
     style="opacity:1;fill:#ffffff;fill-opacity:1;stroke:none;stroke-width:5.71400023;stroke-miterlimit:4;stroke-dasharray:none;stroke-opacity:1"
     d="m 132.84246,188.17128 c 0,-9.91093 -0.29957,-27.63911 -0.66572,-39.39595 l -0.66571,-21.37608 43.09212,0 43.09212,0 0,39.39595 0,39.39595 -42.4264,0 -42.42641,0 0,-18.01987 z"
     id="path6145"
     inkscape:connector-curvature="0" />
  <path
     style="opacity:1;fill:#ffffff;fill-opacity:1;stroke:none;stroke-width:5.71400023;stroke-miterlimit:4;stroke-dasharray:none;stroke-opacity:1"
     d="m 132.84246,192.71796 c 0,-7.41026 -0.30017,-25.13844 -0.66703,-39.39595 l -0.66704,-25.92276 43.09344,0 43.09344,0 0,39.39595 0,39.39595 -42.4264,0 -42.42641,0 0,-13.47319 z"
     id="path6147"
     inkscape:connector-curvature="0" />
  <path
     style="opacity:1;fill:#0fd5e1;fill-opacity:1;stroke:none;stroke-width:5.71400023;stroke-miterlimit:4;stroke-dasharray:none;stroke-opacity:1"
     d="m 132.5,177.23746 c -0.36723,-15.92453 -0.66769,-33.6527 -0.66769,-39.39595 l 0,-10.44226 42.93148,0 42.93148,0 0,39.39595 0,39.39595 -42.26379,0 -42.2638,0 L 132.5,177.23746 Z"
     id="path6149"
     inkscape:connector-curvature="0" />
  <path
     style="opacity:1;fill:#0fd5e1;fill-opacity:1;stroke:none;stroke-width:5.71400023;stroke-miterlimit:4;stroke-dasharray:none;stroke-opacity:1"
     d="m 312.64961,166.7952 0,-39.39595 43.94164,0 43.94163,0 0,39.39595 0,39.39595 -43.94163,0 -43.94164,0 0,-39.39595 z"
     id="path6151"
     inkscape:connector-curvature="0" />
  <path
     style="opacity:1;fill:#0fd5e1;fill-opacity:1;stroke:none;stroke-width:5.71400023;stroke-miterlimit:4;stroke-dasharray:none;stroke-opacity:1"
     d="m 132.84246,331.95515 0,-39.90103 42.42641,0 42.4264,0 0,39.90103 0,39.90102 -42.4264,0 -42.42641,0 0,-39.90102 z"
     id="path6153"
     inkscape:connector-curvature="0" />
  <path
     style="opacity:1;fill:#0fd5e1;fill-opacity:1;stroke:none;stroke-width:5.71400023;stroke-miterlimit:4;stroke-dasharray:none;stroke-opacity:1"
     d="m 312.64961,331.95515 0,-39.90103 43.94164,0 43.94163,0 0,39.90103 0,39.90102 -43.94163,0 -43.94164,0 0,-39.90102 z"
     id="path6155"
     inkscape:connector-curvature="0" />
  <path
     style="opacity:1;fill:#0fd5e1;fill-opacity:1;stroke:none;stroke-width:1;stroke-miterlimit:4;stroke-dasharray:1, 2;stroke-dashoffset:0;stroke-opacity:1"
     d="m 129.79986,498.12524 0,-38.3858 43.94163,0 43.94164,0 0,38.3858 0,38.3858 -43.94164,0 -43.94163,0 0,-38.3858 z"
     id="path6390"
     inkscape:connector-curvature="0" />
  <path
     style="opacity:1;fill:#0fd5e1;fill-opacity:1;stroke:none;stroke-width:1;stroke-miterlimit:4;stroke-dasharray:1, 2;stroke-dashoffset:0;stroke-opacity:1"
     d="m 312.63747,498.12524 0,-38.3858 33.17789,0 c 18.24784,0 38.02158,-0.29636 43.94164,-0.65858 l 10.76374,-0.65859 0,39.04438 0,39.04439 -43.94164,0 -43.94163,0 0,-38.3858 z"
     id="path6392"
     inkscape:connector-curvature="0" />
  <path
     style="opacity:1;fill:#0fd5e1;fill-opacity:1;stroke:none;stroke-width:1;stroke-miterlimit:4;stroke-dasharray:1, 2;stroke-dashoffset:0;stroke-opacity:1"
     d="m 497.49538,331.95514 0,-39.90102 42.93149,0 42.93148,0 0,39.90102 0,39.90103 -42.93148,0 -42.93149,0 0,-39.90103 z"
     id="path6394"
     inkscape:connector-curvature="0" />
  <path
     style="opacity:1;fill:#0fd5e1;fill-opacity:1;stroke:none;stroke-width:1;stroke-miterlimit:4;stroke-dasharray:1, 2;stroke-dashoffset:0;stroke-opacity:1"
     d="m 497.84153,194.82694 c 0.36015,-6.25032 0.65689,-24.20578 0.65941,-39.90103 l 0.005,-28.53681 42.4264,0 42.42641,0 0,39.90103 0,39.90102 -43.08582,0 -43.08582,0 0.65482,-11.36421 z"
     id="path6396"
     inkscape:connector-curvature="0" />
  <path
     style="opacity:1;fill:#0fd5e1;fill-opacity:1;stroke:none;stroke-width:1;stroke-miterlimit:4;stroke-dasharray:1, 2;stroke-dashoffset:0;stroke-opacity:1"
     d="m 495.71576,497.36762 0.2644,-39.14341 43.68909,-0.26327 43.6891,-0.26326 0,39.40668 0,39.40668 -43.9535,0 -43.9535,0 0.26441,-39.14342 z"
     id="path6398"
     inkscape:connector-curvature="0" />
  <text
     xml:space="preserve"
     style="font-style:normal;font-weight:normal;font-size:40px;line-height:125%;font-family:sans-serif;letter-spacing:0px;word-spacing:0px;fill:#000000;fill-opacity:1;stroke:none;stroke-width:1px;stroke-linecap:butt;stroke-linejoin:miter;stroke-opacity:1"
     x="164.28572"
     y="345.21936"
     id="text4184"
     sodipodi:linespacing="125%"><tspan
       sodipodi:role="line"
       id="tspan4186"
       x="164.28572"
       y="345.21936">•</tspan></text>
  <text
     xml:space="preserve"
     style="font-style:normal;font-weight:normal;font-size:40px;line-height:125%;font-family:sans-serif;letter-spacing:0px;word-spacing:0px;fill:#000000;fill-opacity:1;stroke:none;stroke-width:1px;stroke-linecap:butt;stroke-linejoin:miter;stroke-opacity:1"
     x="346.23465"
     y="344.57761"
     id="text4184-8"
     sodipodi:linespacing="125%"><tspan
       sodipodi:role="line"
       id="tspan4186-9"
       x="346.23465"
       y="344.57761">•</tspan></text>
  <text
     xml:space="preserve"
     style="font-style:normal;font-weight:normal;font-size:40px;line-height:125%;font-family:sans-serif;letter-spacing:0px;word-spacing:0px;fill:#000000;fill-opacity:1;stroke:none;stroke-width:1px;stroke-linecap:butt;stroke-linejoin:miter;stroke-opacity:1"
     x="347.66321"
     y="178.86333"
     id="text4184-6"
     sodipodi:linespacing="125%"><tspan
       sodipodi:role="line"
       id="tspan4186-4"
       x="347.66321"
       y="178.86333">•</tspan></text>
  <text
     xml:space="preserve"
     style="font-style:normal;font-weight:normal;font-size:40px;line-height:125%;font-family:sans-serif;letter-spacing:0px;word-spacing:0px;fill:#000000;fill-opacity:1;stroke:none;stroke-width:1px;stroke-linecap:butt;stroke-linejoin:miter;stroke-opacity:1"
     x="163.37752"
     y="179.57761"
     id="text4184-2"
     sodipodi:linespacing="125%"><tspan
       sodipodi:role="line"
       id="tspan4186-7"
       x="163.37752"
       y="179.57761">•</tspan></text>
  <text
     xml:space="preserve"
     style="font-style:normal;font-variant:normal;font-weight:normal;font-stretch:normal;font-size:35px;line-height:125%;font-family:Symbol;-inkscape-font-specification:Symbol;letter-spacing:0px;word-spacing:0px;fill:#000000;fill-opacity:1;stroke:none;stroke-width:1px;stroke-linecap:butt;stroke-linejoin:miter;stroke-opacity:1"
     x="233.24303"
     y="270.30298"
     id="text5880-32-4"
     sodipodi:linespacing="125%"
     transform="scale(1.0516045,0.95092784)"><tspan
       sodipodi:role="line"
       id="tspan5882-1-2"
       x="233.24303"
       y="270.30298">b<tspan
   style="font-size:64.99999762%;baseline-shift:sub"
   id="tspan6210-3-6">1</tspan></tspan></text>
  <text
     xml:space="preserve"
     style="font-style:normal;font-variant:normal;font-weight:normal;font-stretch:normal;font-size:35px;line-height:125%;font-family:Symbol;-inkscape-font-specification:Symbol;letter-spacing:0px;word-spacing:0px;fill:#000000;fill-opacity:1;stroke:none;stroke-width:1px;stroke-linecap:butt;stroke-linejoin:miter;stroke-opacity:1"
     x="230.96638"
     y="447.53171"
     id="text5880-6-9-58"
     sodipodi:linespacing="125%"
     transform="scale(1.0516045,0.95092784)"><tspan
       sodipodi:role="line"
       id="tspan5882-9-1-4"
       x="230.96638"
       y="447.53171">b<tspan
   style="font-size:64.99999762%;baseline-shift:sub"
   id="tspan6259-2-9">3</tspan></tspan></text>
  <text
     xml:space="preserve"
     style="font-style:normal;font-variant:normal;font-weight:normal;font-stretch:normal;font-size:35px;line-height:125%;font-family:Symbol;-inkscape-font-specification:Symbol;letter-spacing:0px;word-spacing:0px;fill:#000000;fill-opacity:1;stroke:none;stroke-width:1px;stroke-linecap:butt;stroke-linejoin:miter;stroke-opacity:1"
     x="405.48688"
     y="446.6416"
     id="text5880-65-4"
     sodipodi:linespacing="125%"
     transform="scale(1.0516045,0.95092784)"><tspan
       sodipodi:role="line"
       id="tspan5882-5-6"
       x="405.48688"
       y="446.6416">b<tspan
   style="font-size:64.99999762%;baseline-shift:sub"
   id="tspan6257-9">4</tspan></tspan></text>
  <text
     xml:space="preserve"
     style="font-style:normal;font-variant:normal;font-weight:normal;font-stretch:normal;font-size:35px;line-height:125%;font-family:Symbol;-inkscape-font-specification:Symbol;letter-spacing:0px;word-spacing:0px;fill:#000000;fill-opacity:1;stroke:none;stroke-width:1px;stroke-linecap:butt;stroke-linejoin:miter;stroke-opacity:1"
     x="407.59686"
     y="269.24066"
     id="text5880-3-1"
     sodipodi:linespacing="125%"
     transform="scale(1.0516045,0.95092784)"><tspan
       sodipodi:role="line"
       id="tspan5882-6-6"
       x="407.59686"
       y="269.24066">b<tspan
   style="font-size:64.99999762%;baseline-shift:sub"
   id="tspan6253-2">2</tspan></tspan></text>
</svg>
