<?xml version="1.0" encoding="UTF-8" standalone="no"?>
<!-- Created with Inkscape (http://www.inkscape.org/) -->

<svg
   xmlns:dc="http://purl.org/dc/elements/1.1/"
   xmlns:cc="http://creativecommons.org/ns#"
   xmlns:rdf="http://www.w3.org/1999/02/22-rdf-syntax-ns#"
   xmlns:svg="http://www.w3.org/2000/svg"
   xmlns="http://www.w3.org/2000/svg"
   xmlns:xlink="http://www.w3.org/1999/xlink"
   xmlns:sodipodi="http://sodipodi.sourceforge.net/DTD/sodipodi-0.dtd"
   xmlns:inkscape="http://www.inkscape.org/namespaces/inkscape"
   width="210mm"
   height="297mm"
   viewBox="0 0 744.09448819 1052.3622047"
   id="svg2"
   version="1.1"
   inkscape:version="0.91 r13725"
   sodipodi:docname="cborders.svg"
   inkscape:export-filename="C:\Users\X5\Desktop\cesg_prez\ccomp.png"
   inkscape:export-xdpi="90"
   inkscape:export-ydpi="90">
  <defs
     id="defs4" />
  <sodipodi:namedview
     id="base"
     pagecolor="#ffffff"
     bordercolor="#666666"
     borderopacity="1.0"
     inkscape:pageopacity="0.0"
     inkscape:pageshadow="2"
     inkscape:zoom="0.98994949"
     inkscape:cx="232.69005"
     inkscape:cy="805.60006"
     inkscape:document-units="px"
     inkscape:current-layer="svg2"
     showgrid="false"
     inkscape:window-width="1920"
     inkscape:window-height="1017"
     inkscape:window-x="-8"
     inkscape:window-y="-8"
     inkscape:window-maximized="1"
     inkscape:snap-nodes="false" />
  <metadata
     id="metadata7">
    <rdf:RDF>
      <cc:Work
         rdf:about="">
        <dc:format>image/svg+xml</dc:format>
        <dc:type
           rdf:resource="http://purl.org/dc/dcmitype/StillImage" />
        <dc:title></dc:title>
      </cc:Work>
    </rdf:RDF>
  </metadata>
  <g
     inkscape:label="Vrstva 1"
     inkscape:groupmode="layer"
     id="layer1" />
  <rect
     style="opacity:1;fill:#2b0000;fill-opacity:0;stroke:#000000;stroke-width:1.24819434"
     id="rect5786"
     width="90.16346"
     height="81.53154"
     x="128.68536"
     y="125.58688"
     inkscape:tile-cx="122.22846"
     inkscape:tile-cy="155.34672"
     inkscape:tile-w="69.690376"
     inkscape:tile-h="69.690376"
     inkscape:tile-x0="87.38327"
     inkscape:tile-y0="120.50153" />
  <use
     x="0"
     y="0"
     inkscape:tiled-clone-of="#rect5786"
     xlink:href="#rect5786"
     id="use5796"
     width="100%"
     height="100%" />
  <use
     x="0"
     y="0"
     inkscape:tiled-clone-of="#rect5786"
     xlink:href="#rect5786"
     transform="translate(3.6434277e-7,82.718483)"
     id="use5798"
     width="100%"
     height="100%" />
  <use
     x="0"
     y="0"
     inkscape:tiled-clone-of="#rect5786"
     xlink:href="#rect5786"
     transform="translate(3.6434277e-7,165.43696)"
     id="use5800"
     width="100%"
     height="100%" />
  <use
     x="0"
     y="0"
     inkscape:tiled-clone-of="#rect5786"
     xlink:href="#rect5786"
     transform="translate(3.6434277e-7,248.15545)"
     id="use5802"
     width="100%"
     height="100%" />
  <use
     x="0"
     y="0"
     inkscape:tiled-clone-of="#rect5786"
     xlink:href="#rect5786"
     transform="translate(3.6434277e-7,330.87393)"
     id="use5804"
     width="100%"
     height="100%" />
  <use
     x="0"
     y="0"
     inkscape:tiled-clone-of="#rect5786"
     xlink:href="#rect5786"
     transform="translate(91.476065,2.0235946e-7)"
     id="use5806"
     width="100%"
     height="100%" />
  <use
     x="0"
     y="0"
     inkscape:tiled-clone-of="#rect5786"
     xlink:href="#rect5786"
     transform="translate(91.476065,82.718483)"
     id="use5808"
     width="100%"
     height="100%" />
  <use
     x="0"
     y="0"
     inkscape:tiled-clone-of="#rect5786"
     xlink:href="#rect5786"
     transform="translate(91.476065,165.43696)"
     id="use5810"
     width="100%"
     height="100%" />
  <use
     x="0"
     y="0"
     inkscape:tiled-clone-of="#rect5786"
     xlink:href="#rect5786"
     transform="translate(91.476065,248.15545)"
     id="use5812"
     width="100%"
     height="100%" />
  <use
     x="0"
     y="0"
     inkscape:tiled-clone-of="#rect5786"
     xlink:href="#rect5786"
     transform="translate(91.476065,330.87393)"
     id="use5814"
     width="100%"
     height="100%" />
  <use
     x="0"
     y="0"
     inkscape:tiled-clone-of="#rect5786"
     xlink:href="#rect5786"
     transform="translate(182.95212,2.0235946e-7)"
     id="use5816"
     width="100%"
     height="100%" />
  <use
     x="0"
     y="0"
     inkscape:tiled-clone-of="#rect5786"
     xlink:href="#rect5786"
     transform="translate(182.95212,82.718483)"
     id="use5818"
     width="100%"
     height="100%" />
  <use
     x="0"
     y="0"
     inkscape:tiled-clone-of="#rect5786"
     xlink:href="#rect5786"
     transform="translate(182.95212,165.43696)"
     id="use5820"
     width="100%"
     height="100%" />
  <use
     x="0"
     y="0"
     inkscape:tiled-clone-of="#rect5786"
     xlink:href="#rect5786"
     transform="translate(182.95212,248.15545)"
     id="use5822"
     width="100%"
     height="100%" />
  <use
     x="0"
     y="0"
     inkscape:tiled-clone-of="#rect5786"
     xlink:href="#rect5786"
     transform="translate(182.95212,330.87393)"
     id="use5824"
     width="100%"
     height="100%" />
  <use
     x="0"
     y="0"
     inkscape:tiled-clone-of="#rect5786"
     xlink:href="#rect5786"
     transform="translate(274.42819,2.0235946e-7)"
     id="use5826"
     width="100%"
     height="100%" />
  <use
     x="0"
     y="0"
     inkscape:tiled-clone-of="#rect5786"
     xlink:href="#rect5786"
     transform="translate(274.42819,82.718483)"
     id="use5828"
     width="100%"
     height="100%" />
  <use
     x="0"
     y="0"
     inkscape:tiled-clone-of="#rect5786"
     xlink:href="#rect5786"
     transform="translate(274.42819,165.43696)"
     id="use5830"
     width="100%"
     height="100%" />
  <use
     x="0"
     y="0"
     inkscape:tiled-clone-of="#rect5786"
     xlink:href="#rect5786"
     transform="translate(274.42819,248.15545)"
     id="use5832"
     width="100%"
     height="100%" />
  <use
     x="0"
     y="0"
     inkscape:tiled-clone-of="#rect5786"
     xlink:href="#rect5786"
     transform="translate(274.42819,330.87393)"
     id="use5834"
     width="100%"
     height="100%" />
  <use
     x="0"
     y="0"
     inkscape:tiled-clone-of="#rect5786"
     xlink:href="#rect5786"
     transform="translate(365.90424,2.0235946e-7)"
     id="use5836"
     width="100%"
     height="100%" />
  <use
     x="0"
     y="0"
     inkscape:tiled-clone-of="#rect5786"
     xlink:href="#rect5786"
     transform="translate(365.90424,82.718483)"
     id="use5838"
     width="100%"
     height="100%" />
  <use
     x="0"
     y="0"
     inkscape:tiled-clone-of="#rect5786"
     xlink:href="#rect5786"
     transform="translate(365.90424,165.43696)"
     id="use5840"
     width="100%"
     height="100%" />
  <use
     x="0"
     y="0"
     inkscape:tiled-clone-of="#rect5786"
     xlink:href="#rect5786"
     transform="translate(365.90424,248.15545)"
     id="use5842"
     width="100%"
     height="100%" />
  <use
     x="0"
     y="0"
     inkscape:tiled-clone-of="#rect5786"
     xlink:href="#rect5786"
     transform="translate(365.90424,330.87393)"
     id="use5844"
     width="100%"
     height="100%" />
  <text
     xml:space="preserve"
     style="font-style:normal;font-weight:normal;font-size:40px;line-height:125%;font-family:sans-serif;letter-spacing:0px;word-spacing:0px;fill:#000000;fill-opacity:1;stroke:none;stroke-width:1px;stroke-linecap:butt;stroke-linejoin:miter;stroke-opacity:1"
     x="62.629459"
     y="212.92542"
     id="text5846"
     sodipodi:linespacing="125%"><tspan
       sodipodi:role="line"
       id="tspan5848"
       x="62.629459"
       y="212.92542" /></text>
  <text
     xml:space="preserve"
     style="font-style:normal;font-weight:normal;font-size:40px;line-height:125%;font-family:sans-serif;letter-spacing:0px;word-spacing:0px;fill:#000000;fill-opacity:1;stroke:none;stroke-width:1px;stroke-linecap:butt;stroke-linejoin:miter;stroke-opacity:1"
     x="65.659912"
     y="214.94572"
     id="text5850"
     sodipodi:linespacing="125%"><tspan
       sodipodi:role="line"
       id="tspan5852"
       x="65.659912"
       y="214.94572" /></text>
  <path
     style="fill:none;fill-rule:evenodd;stroke:#d40000;stroke-width:4.93965769;stroke-linecap:butt;stroke-linejoin:miter;stroke-miterlimit:4;stroke-dasharray:none;stroke-opacity:1"
     d="m 130.64049,457.12211 363.3594,-1.17781 1.35399,-330.96655 -366.02547,-0.0678 z"
     id="path5860"
     inkscape:connector-curvature="0"
     sodipodi:nodetypes="ccccc" />
  <flowRoot
     xml:space="preserve"
     id="flowRoot5944"
     style="fill:black;stroke:none;stroke-opacity:1;stroke-width:1px;stroke-linejoin:miter;stroke-linecap:butt;fill-opacity:1;font-family:sans-serif;font-style:normal;font-weight:normal;font-size:40px;line-height:125%;letter-spacing:0px;word-spacing:0px"><flowRegion
       id="flowRegion5946"><rect
         id="rect5948"
         width="5.0507627"
         height="47.477169"
         x="145.46196"
         y="103.82894" /></flowRegion><flowPara
       id="flowPara5950" /></flowRoot>  <flowRoot
     xml:space="preserve"
     id="flowRoot5952"
     style="fill:black;stroke:none;stroke-opacity:1;stroke-width:1px;stroke-linejoin:miter;stroke-linecap:butt;fill-opacity:1;font-family:sans-serif;font-style:normal;font-weight:normal;font-size:40px;line-height:125%;letter-spacing:0px;word-spacing:0px"><flowRegion
       id="flowRegion5954"><rect
         id="rect5956"
         width="519.21838"
         height="446.48743"
         x="15.152288"
         y="15.945671" /></flowRegion><flowPara
       id="flowPara5958" /></flowRoot>  <path
     style="opacity:1;fill:#ffffff;fill-opacity:1;stroke:none;stroke-width:5.71400023;stroke-miterlimit:4;stroke-dasharray:none;stroke-opacity:1"
     d="m 132.83909,182.70511 c -0.002,-12.91733 -0.3003,-30.64551 -0.66322,-39.39595 l -0.65986,-15.90991 43.08963,0 43.08963,0 0,39.39595 0,39.39595 -42.4264,0 -42.42641,0 -0.003,-23.48604 z"
     id="path6143"
     inkscape:connector-curvature="0" />
  <path
     style="opacity:1;fill:#ffffff;fill-opacity:1;stroke:none;stroke-width:5.71400023;stroke-miterlimit:4;stroke-dasharray:none;stroke-opacity:1"
     d="m 132.84246,188.17128 c 0,-9.91093 -0.29957,-27.63911 -0.66572,-39.39595 l -0.66571,-21.37608 43.09212,0 43.09212,0 0,39.39595 0,39.39595 -42.4264,0 -42.42641,0 0,-18.01987 z"
     id="path6145"
     inkscape:connector-curvature="0" />
  <path
     style="opacity:1;fill:#ffffff;fill-opacity:1;stroke:none;stroke-width:5.71400023;stroke-miterlimit:4;stroke-dasharray:none;stroke-opacity:1"
     d="m 132.84246,192.71796 c 0,-7.41026 -0.30017,-25.13844 -0.66703,-39.39595 l -0.66704,-25.92276 43.09344,0 43.09344,0 0,39.39595 0,39.39595 -42.4264,0 -42.42641,0 0,-13.47319 z"
     id="path6147"
     inkscape:connector-curvature="0" />
  <use
     x="0"
     y="0"
     inkscape:tiled-clone-of="#rect5786"
     xlink:href="#rect5786"
     transform="translate(-0.10472607,-81.611985)"
     id="use5804-8"
     width="100%"
     height="100%" />
  <use
     x="0"
     y="0"
     inkscape:tiled-clone-of="#rect5786"
     xlink:href="#rect5786"
     transform="translate(91.371342,-81.611985)"
     id="use5814-9"
     width="100%"
     height="100%" />
  <use
     x="0"
     y="0"
     inkscape:tiled-clone-of="#rect5786"
     xlink:href="#rect5786"
     transform="translate(182.8474,-81.611985)"
     id="use5824-1"
     width="100%"
     height="100%" />
  <use
     x="0"
     y="0"
     inkscape:tiled-clone-of="#rect5786"
     xlink:href="#rect5786"
     transform="translate(274.32346,-81.611985)"
     id="use5834-1"
     width="100%"
     height="100%" />
  <use
     x="0"
     y="0"
     inkscape:tiled-clone-of="#rect5786"
     xlink:href="#rect5786"
     transform="translate(365.79951,-81.611985)"
     id="use5844-9"
     width="100%"
     height="100%" />
  <use
     x="0"
     y="0"
     inkscape:tiled-clone-of="#rect5786"
     xlink:href="#rect5786"
     transform="translate(-90.286952,-0.129331)"
     id="use5836-9"
     width="100%"
     height="100%" />
  <use
     x="0"
     y="0"
     inkscape:tiled-clone-of="#rect5786"
     xlink:href="#rect5786"
     transform="translate(-90.286952,82.589149)"
     id="use5838-4"
     width="100%"
     height="100%" />
  <use
     x="0"
     y="0"
     inkscape:tiled-clone-of="#rect5786"
     xlink:href="#rect5786"
     transform="translate(-90.286952,165.30762)"
     id="use5840-0"
     width="100%"
     height="100%" />
  <use
     x="0"
     y="0"
     inkscape:tiled-clone-of="#rect5786"
     xlink:href="#rect5786"
     transform="translate(-90.286952,248.02611)"
     id="use5842-1"
     width="100%"
     height="100%" />
  <use
     x="0"
     y="0"
     inkscape:tiled-clone-of="#rect5786"
     xlink:href="#rect5786"
     transform="translate(-90.286952,330.7446)"
     id="use5844-99"
     width="100%"
     height="100%" />
  <use
     x="0"
     y="0"
     inkscape:tiled-clone-of="#rect5786"
     xlink:href="#rect5786"
     transform="translate(-90.391682,-81.652031)"
     id="use5844-9-0"
     width="100%"
     height="100%" />
  <path
     style="opacity:1;fill:#0fd5e1;fill-opacity:1;stroke:none;stroke-width:1;stroke-miterlimit:4;stroke-dasharray:1, 2;stroke-dashoffset:0;stroke-opacity:1"
     d="m 39.971725,248.91862 0,-39.90102 43.436559,0 43.436556,0 0,39.90102 0,39.90103 -43.436556,0 -43.436559,0 0,-39.90103 z"
     id="path7760"
     inkscape:connector-curvature="0" />
  <path
     style="opacity:1;fill:#0fd5e1;fill-opacity:1;stroke:none;stroke-width:1;stroke-miterlimit:4;stroke-dasharray:1, 2;stroke-dashoffset:0;stroke-opacity:1"
     d="m 132.56182,183.09546 c -0.36642,-12.59043 -0.66621,-30.3186 -0.66621,-39.39595 l 0,-16.50427 42.93148,0 42.93148,0 0,39.39595 0,39.39595 -42.26527,0 -42.26527,0 -0.66621,-22.89168 z"
     id="path7762"
     inkscape:connector-curvature="0" />
  <path
     style="opacity:1;fill:#0fd5e1;fill-opacity:1;stroke:none;stroke-width:1;stroke-miterlimit:4;stroke-dasharray:1, 2;stroke-dashoffset:0;stroke-opacity:1"
     d="m 132.90576,331.75113 0,-39.90102 42.42641,0 42.4264,0 0,39.90102 0,39.90103 -42.4264,0 -42.42641,0 0,-39.90103 z"
     id="path7764"
     inkscape:connector-curvature="0" />
  <path
     style="opacity:1;fill:#0fd5e1;fill-opacity:1;stroke:none;stroke-width:1;stroke-miterlimit:4;stroke-dasharray:1, 2;stroke-dashoffset:0;stroke-opacity:1"
     d="m 220.78903,248.91862 0,-39.90102 44.44671,0 44.44671,0 0,39.90102 0,39.90103 -44.44671,0 -44.44671,0 0,-39.90103 z"
     id="path7766"
     inkscape:connector-curvature="0" />
  <path
     style="opacity:1;fill:#0fd5e1;fill-opacity:1;stroke:none;stroke-width:1;stroke-miterlimit:4;stroke-dasharray:1, 2;stroke-dashoffset:0;stroke-opacity:1"
     d="m 39.971725,414.58364 0,-39.90103 43.941635,0 43.94164,0 0,39.90103 0,39.90103 -43.94164,0 -43.941635,0 0,-39.90103 z"
     id="path7852"
     inkscape:connector-curvature="0" />
  <path
     style="opacity:1;fill:#0fd5e1;fill-opacity:1;stroke:none;stroke-width:1;stroke-miterlimit:4;stroke-dasharray:1, 2;stroke-dashoffset:0;stroke-opacity:1"
     d="m 129.8753,499.07208 0,-38.24509 5.3033,-0.637 c 2.91682,-0.35035 22.69055,-0.64095 43.94164,-0.64578 l 38.63833,-0.009 0,38.89087 0,38.89087 -43.94163,0 -43.94164,0 0,-38.24509 z"
     id="path7854"
     inkscape:connector-curvature="0" />
  <path
     style="opacity:1;fill:#0fd5e1;fill-opacity:1;stroke:none;stroke-width:1;stroke-miterlimit:4;stroke-dasharray:1, 2;stroke-dashoffset:0;stroke-opacity:1"
     d="m 220.78903,414.07856 0,-39.39595 44.44671,0 44.44671,0 0,39.39595 0,39.39595 -44.44671,0 -44.44671,0 0,-39.39595 z"
     id="path7856"
     inkscape:connector-curvature="0" />
  <path
     style="opacity:1;fill:#0fd5e1;fill-opacity:1;stroke:none;stroke-width:1;stroke-miterlimit:4;stroke-dasharray:1, 2;stroke-dashoffset:0;stroke-opacity:1"
     d="m 220.78903,83.75868 0,-38.385797 43.94164,0 43.94163,0 0,38.385797 0,38.3858 -43.94163,0 -43.94164,0 0,-38.3858 z"
     id="path7910"
     inkscape:connector-curvature="0" />
  <path
     style="opacity:1;fill:#0fd5e1;fill-opacity:1;stroke:none;stroke-width:1;stroke-miterlimit:4;stroke-dasharray:1, 2;stroke-dashoffset:0;stroke-opacity:1"
     d="m 312.71291,167.09627 0,-38.89088 43.94164,0 43.94163,0 0,38.89088 0,38.89087 -43.94163,0 -43.94164,0 0,-38.89087 z"
     id="path7912"
     inkscape:connector-curvature="0" />
  <path
     style="opacity:1;fill:#0fd5e1;fill-opacity:1;stroke:none;stroke-width:1;stroke-miterlimit:4;stroke-dasharray:1, 2;stroke-dashoffset:0;stroke-opacity:1"
     d="m 312.71291,331.75113 0,-39.90102 43.94164,0 43.94163,0 0,39.90102 0,39.90103 -43.94163,0 -43.94164,0 0,-39.90103 z"
     id="path7956"
     inkscape:connector-curvature="0" />
  <path
     style="opacity:1;fill:#0fd5e1;fill-opacity:1;stroke:none;stroke-width:1;stroke-miterlimit:4;stroke-dasharray:1, 2;stroke-dashoffset:0;stroke-opacity:1"
     d="m 312.71291,331.75113 0,-39.90102 43.94164,0 43.94163,0 0,39.90102 0,39.90103 -43.94163,0 -43.94164,0 0,-39.90103 z"
     id="path7958"
     inkscape:connector-curvature="0" />
  <path
     style="opacity:1;fill:#0fd5e1;fill-opacity:1;stroke:none;stroke-width:1;stroke-miterlimit:4;stroke-dasharray:1, 2;stroke-dashoffset:0;stroke-opacity:1"
     d="m 404.63679,414.07856 0,-39.39595 43.43656,0 43.43656,0 0,39.39595 0,39.39595 -43.43656,0 -43.43656,0 0,-39.39595 z"
     id="path7960"
     inkscape:connector-curvature="0" />
  <path
     style="opacity:1;fill:#0fd5e1;fill-opacity:1;stroke:none;stroke-width:1;stroke-miterlimit:4;stroke-dasharray:1, 2;stroke-dashoffset:0;stroke-opacity:1"
     d="m 404.63679,414.07856 0,-39.39595 43.43656,0 43.43656,0 0,39.39595 0,39.39595 -43.43656,0 -43.43656,0 0,-39.39595 z"
     id="path7962"
     inkscape:connector-curvature="0" />
  <path
     style="opacity:1;fill:#0fd5e1;fill-opacity:1;stroke:none;stroke-width:1;stroke-miterlimit:4;stroke-dasharray:1, 2;stroke-dashoffset:0;stroke-opacity:1"
     d="m 312.71291,498.4263 0,-38.89087 43.94164,0 43.94163,0 0,38.89087 0,38.89087 -43.94163,0 -43.94164,0 0,-38.89087 z"
     id="path7964"
     inkscape:connector-curvature="0" />
  <path
     style="opacity:1;fill:#0fd5e1;fill-opacity:1;stroke:none;stroke-width:1;stroke-miterlimit:4;stroke-dasharray:1, 2;stroke-dashoffset:0;stroke-opacity:1"
     d="m 404.63679,248.91862 0,-39.90102 44.09825,0 44.09824,0 -0.66169,13.79677 c -0.36392,7.58823 -0.66168,25.54369 -0.66168,39.90103 l 0,26.10425 -43.43656,0 -43.43656,0 0,-39.90103 z"
     id="path8029"
     inkscape:connector-curvature="0" />
  <path
     style="opacity:1;fill:#0fd5e1;fill-opacity:1;stroke:none;stroke-width:1;stroke-miterlimit:4;stroke-dasharray:1, 2;stroke-dashoffset:0;stroke-opacity:1"
     d="m 497.57083,331.75113 0,-39.90102 42.93148,0 42.93149,0 0,39.90102 0,39.90103 -42.93149,0 -42.93148,0 0,-39.90103 z"
     id="path8031"
     inkscape:connector-curvature="0" />
  <path
     style="opacity:1;fill:#0fd5e1;fill-opacity:1;stroke:none;stroke-width:1;stroke-miterlimit:4;stroke-dasharray:1, 2;stroke-dashoffset:0;stroke-opacity:1"
     d="m 403.62664,83.75868 0,-38.385797 44.44671,0 44.44672,0 0,38.385797 0,38.3858 -44.44672,0 -44.44671,0 0,-38.3858 z"
     id="path8075"
     inkscape:connector-curvature="0" />
  <path
     style="opacity:1;fill:#0fd5e1;fill-opacity:1;stroke:none;stroke-width:1;stroke-miterlimit:4;stroke-dasharray:1, 2;stroke-dashoffset:0;stroke-opacity:1"
     d="m 497.91197,180.98586 c 0.36555,-13.7507 0.66562,-31.70616 0.66682,-39.90102 l 0.002,-14.89975 42.42641,0 42.42641,0 0,39.90102 0,39.90103 -43.09324,0 -43.09323,0 0.66464,-25.00128 z"
     id="path8077"
     inkscape:connector-curvature="0" />
  <text
     xml:space="preserve"
     style="font-style:normal;font-weight:normal;font-size:40px;line-height:125%;font-family:sans-serif;letter-spacing:0px;word-spacing:0px;fill:#000000;fill-opacity:1;stroke:none;stroke-width:1px;stroke-linecap:butt;stroke-linejoin:miter;stroke-opacity:1"
     x="164.03235"
     y="344.38849"
     id="text4184"
     sodipodi:linespacing="125%"><tspan
       sodipodi:role="line"
       id="tspan4186"
       x="164.03235"
       y="344.38849">•</tspan></text>
  <text
     xml:space="preserve"
     style="font-style:normal;font-weight:normal;font-size:40px;line-height:125%;font-family:sans-serif;letter-spacing:0px;word-spacing:0px;fill:#000000;fill-opacity:1;stroke:none;stroke-width:1px;stroke-linecap:butt;stroke-linejoin:miter;stroke-opacity:1"
     x="344.46606"
     y="345.76703"
     id="text4184-8"
     sodipodi:linespacing="125%"><tspan
       sodipodi:role="line"
       id="tspan4186-9"
       x="344.46606"
       y="345.76703">•</tspan></text>
  <text
     xml:space="preserve"
     style="font-style:normal;font-weight:normal;font-size:40px;line-height:125%;font-family:sans-serif;letter-spacing:0px;word-spacing:0px;fill:#000000;fill-opacity:1;stroke:none;stroke-width:1px;stroke-linecap:butt;stroke-linejoin:miter;stroke-opacity:1"
     x="345.89462"
     y="180.05275"
     id="text4184-6"
     sodipodi:linespacing="125%"><tspan
       sodipodi:role="line"
       id="tspan4186-4"
       x="345.89462"
       y="180.05275">•</tspan></text>
  <text
     xml:space="preserve"
     style="font-style:normal;font-weight:normal;font-size:40px;line-height:125%;font-family:sans-serif;letter-spacing:0px;word-spacing:0px;fill:#000000;fill-opacity:1;stroke:none;stroke-width:1px;stroke-linecap:butt;stroke-linejoin:miter;stroke-opacity:1"
     x="164.13429"
     y="179.75688"
     id="text4184-2"
     sodipodi:linespacing="125%"><tspan
       sodipodi:role="line"
       id="tspan4186-7"
       x="164.13429"
       y="179.75688">•</tspan></text>
  <text
     xml:space="preserve"
     style="font-style:normal;font-weight:normal;font-size:40px;line-height:125%;font-family:sans-serif;letter-spacing:0px;word-spacing:0px;fill:#000000;fill-opacity:1;stroke:none;stroke-width:1px;stroke-linecap:butt;stroke-linejoin:miter;stroke-opacity:1"
     x="254.44101"
     y="427.22098"
     id="text4184-9"
     sodipodi:linespacing="125%"><tspan
       sodipodi:role="line"
       id="tspan4186-43"
       x="254.44101"
       y="427.22098">•</tspan></text>
  <text
     xml:space="preserve"
     style="font-style:normal;font-weight:normal;font-size:40px;line-height:125%;font-family:sans-serif;letter-spacing:0px;word-spacing:0px;fill:#000000;fill-opacity:1;stroke:none;stroke-width:1px;stroke-linecap:butt;stroke-linejoin:miter;stroke-opacity:1"
     x="440.93561"
     y="427.08429"
     id="text4184-8-3"
     sodipodi:linespacing="125%"><tspan
       sodipodi:role="line"
       id="tspan4186-9-3"
       x="440.93561"
       y="427.08429">•</tspan></text>
  <text
     xml:space="preserve"
     style="font-style:normal;font-weight:normal;font-size:40px;line-height:125%;font-family:sans-serif;letter-spacing:0px;word-spacing:0px;fill:#000000;fill-opacity:1;stroke:none;stroke-width:1px;stroke-linecap:butt;stroke-linejoin:miter;stroke-opacity:1"
     x="438.82864"
     y="260.35989"
     id="text4184-6-0"
     sodipodi:linespacing="125%"><tspan
       sodipodi:role="line"
       id="tspan4186-4-5"
       x="438.82864"
       y="260.35989">•</tspan></text>
  <text
     xml:space="preserve"
     style="font-style:normal;font-weight:normal;font-size:40px;line-height:125%;font-family:sans-serif;letter-spacing:0px;word-spacing:0px;fill:#000000;fill-opacity:1;stroke:none;stroke-width:1px;stroke-linecap:butt;stroke-linejoin:miter;stroke-opacity:1"
     x="253.53281"
     y="261.57922"
     id="text4184-2-4"
     sodipodi:linespacing="125%"><tspan
       sodipodi:role="line"
       id="tspan4186-7-7"
       x="253.53281"
       y="261.57922">•</tspan></text>
  <text
     xml:space="preserve"
     style="font-style:normal;font-weight:normal;font-size:40px;line-height:125%;font-family:sans-serif;letter-spacing:0px;word-spacing:0px;fill:#000000;fill-opacity:1;stroke:none;stroke-width:1px;stroke-linecap:butt;stroke-linejoin:miter;stroke-opacity:1"
     x="247.74731"
     y="177.86978"
     id="text6167-9-4"
     sodipodi:linespacing="125%"><tspan
       sodipodi:role="line"
       id="tspan6169-2-8"
       x="247.74731"
       y="177.86978"
       style="font-size:35px">c<tspan
   style="font-size:65%;baseline-shift:sub"
   id="tspan4396">2</tspan></tspan></text>
  <text
     xml:space="preserve"
     style="font-style:normal;font-weight:normal;font-size:40px;line-height:125%;font-family:sans-serif;letter-spacing:0px;word-spacing:0px;fill:#000000;fill-opacity:1;stroke:none;stroke-width:1px;stroke-linecap:butt;stroke-linejoin:miter;stroke-opacity:1"
     x="249.41216"
     y="339.32202"
     id="text6157-1"
     sodipodi:linespacing="125%"><tspan
       sodipodi:role="line"
       id="tspan6159-2"
       x="249.41216"
       y="339.32202"
       style="font-size:35px">c<tspan
   style="font-size:65%;baseline-shift:sub"
   id="tspan4400">4</tspan></tspan></text>
  <text
     xml:space="preserve"
     style="font-style:normal;font-variant:normal;font-weight:normal;font-stretch:normal;font-size:35px;line-height:125%;font-family:Symbol;-inkscape-font-specification:Symbol;letter-spacing:0px;word-spacing:0px;fill:#000000;fill-opacity:1;stroke:none;stroke-width:1px;stroke-linecap:butt;stroke-linejoin:miter;stroke-opacity:1"
     x="322.03961"
     y="274.16556"
     id="text5880-32-4"
     sodipodi:linespacing="125%"
     transform="scale(1.0516045,0.95092784)"><tspan
       sodipodi:role="line"
       id="tspan5882-1-2"
       x="322.03961"
       y="274.16556">c<tspan
   style="font-size:65%;baseline-shift:sub"
   id="tspan4402">5</tspan></tspan></text>
  <text
     xml:space="preserve"
     style="font-style:normal;font-variant:normal;font-weight:normal;font-stretch:normal;font-size:35px;line-height:125%;font-family:Symbol;-inkscape-font-specification:Symbol;letter-spacing:0px;word-spacing:0px;fill:#000000;fill-opacity:1;stroke:none;stroke-width:1px;stroke-linecap:butt;stroke-linejoin:miter;stroke-opacity:1"
     x="319.76297"
     y="451.39429"
     id="text5880-6-9-58"
     sodipodi:linespacing="125%"
     transform="scale(1.0516045,0.95092784)"><tspan
       sodipodi:role="line"
       id="tspan5882-9-1-4"
       x="319.76297"
       y="451.39429">c<tspan
   style="font-size:65%;baseline-shift:sub"
   id="tspan4406">7</tspan></tspan></text>
  <text
     xml:space="preserve"
     style="font-style:normal;font-weight:normal;font-size:40px;line-height:125%;font-family:sans-serif;letter-spacing:0px;word-spacing:0px;fill:#000000;fill-opacity:1;stroke:none;stroke-width:1px;stroke-linecap:butt;stroke-linejoin:miter;stroke-opacity:1"
     x="432.13312"
     y="174.83932"
     id="text6167-0-5-8"
     sodipodi:linespacing="125%"><tspan
       sodipodi:role="line"
       id="tspan6169-5-3-9"
       x="432.13312"
       y="174.83932"
       style="font-size:35px">c<tspan
   style="font-size:65%;baseline-shift:sub"
   id="tspan4404">6</tspan></tspan></text>
  <text
     xml:space="preserve"
     style="font-style:normal;font-weight:normal;font-size:40px;line-height:125%;font-family:sans-serif;letter-spacing:0px;word-spacing:0px;fill:#000000;fill-opacity:1;stroke:none;stroke-width:1px;stroke-linecap:butt;stroke-linejoin:miter;stroke-opacity:1"
     x="431.94431"
     y="343.53479"
     id="text6167-4-8"
     sodipodi:linespacing="125%"><tspan
       sodipodi:role="line"
       id="tspan6169-0-1"
       x="431.94431"
       y="343.53479"
       style="font-size:35px">c<tspan
   style="font-size:65%;baseline-shift:sub"
   id="tspan4408">8</tspan></tspan></text>
  <text
     xml:space="preserve"
     style="font-style:normal;font-variant:normal;font-weight:normal;font-stretch:normal;font-size:35px;line-height:125%;font-family:Symbol;-inkscape-font-specification:Symbol;letter-spacing:0px;word-spacing:0px;fill:#000000;fill-opacity:1;stroke:none;stroke-width:1px;stroke-linecap:butt;stroke-linejoin:miter;stroke-opacity:1"
     x="146.14874"
     y="448.82117"
     id="text5880-65-4"
     sodipodi:linespacing="125%"
     transform="scale(1.0516045,0.95092784)"><tspan
       sodipodi:role="line"
       id="tspan5882-5-6"
       x="146.14874"
       y="448.82117">c<tspan
   style="font-size:65%;baseline-shift:sub"
   id="tspan4398">3</tspan></tspan></text>
  <text
     xml:space="preserve"
     style="font-style:normal;font-variant:normal;font-weight:normal;font-stretch:normal;font-size:35px;line-height:125%;font-family:Symbol;-inkscape-font-specification:Symbol;letter-spacing:0px;word-spacing:0px;fill:#000000;fill-opacity:1;stroke:none;stroke-width:1px;stroke-linecap:butt;stroke-linejoin:miter;stroke-opacity:1"
     x="148.25873"
     y="271.4202"
     id="text5880-3-1"
     sodipodi:linespacing="125%"
     transform="scale(1.0516045,0.95092784)"><tspan
       sodipodi:role="line"
       id="tspan5882-6-6"
       x="148.25873"
       y="271.4202">c<tspan
   style="font-size:65%;baseline-shift:sub"
   id="tspan4394">1</tspan></tspan></text>
</svg>
