<?xml version="1.0" encoding="UTF-8" standalone="no"?>
<!-- Created with Inkscape (http://www.inkscape.org/) -->

<svg
   xmlns:dc="http://purl.org/dc/elements/1.1/"
   xmlns:cc="http://creativecommons.org/ns#"
   xmlns:rdf="http://www.w3.org/1999/02/22-rdf-syntax-ns#"
   xmlns:svg="http://www.w3.org/2000/svg"
   xmlns="http://www.w3.org/2000/svg"
   xmlns:sodipodi="http://sodipodi.sourceforge.net/DTD/sodipodi-0.dtd"
   xmlns:inkscape="http://www.inkscape.org/namespaces/inkscape"
   width="210mm"
   height="297mm"
   viewBox="0 0 744.09448819 1052.3622047"
   id="svg2"
   version="1.1"
   inkscape:version="0.91 r13725"
   sodipodi:docname="order4_flat.svg">
  <defs
     id="defs4" />
  <sodipodi:namedview
     id="base"
     pagecolor="#ffffff"
     bordercolor="#666666"
     borderopacity="1.0"
     inkscape:pageopacity="0.0"
     inkscape:pageshadow="2"
     inkscape:zoom="0.98994949"
     inkscape:cx="351.3627"
     inkscape:cy="919.54881"
     inkscape:document-units="px"
     inkscape:current-layer="layer1"
     showgrid="false"
     inkscape:window-width="1920"
     inkscape:window-height="1017"
     inkscape:window-x="-8"
     inkscape:window-y="-8"
     inkscape:window-maximized="1" />
  <metadata
     id="metadata7">
    <rdf:RDF>
      <cc:Work
         rdf:about="">
        <dc:format>image/svg+xml</dc:format>
        <dc:type
           rdf:resource="http://purl.org/dc/dcmitype/StillImage" />
        <dc:title></dc:title>
      </cc:Work>
    </rdf:RDF>
  </metadata>
  <g
     inkscape:label="Vrstva 1"
     inkscape:groupmode="layer"
     id="layer1">
    <text
       xml:space="preserve"
       style="font-style:normal;font-weight:normal;font-size:12.5px;line-height:125%;font-family:sans-serif;letter-spacing:0px;word-spacing:0px;fill:#000000;fill-opacity:1;stroke:none;stroke-width:1px;stroke-linecap:butt;stroke-linejoin:miter;stroke-opacity:1;"
       x="44.285713"
       y="96.647919"
       id="text3338"
       sodipodi:linespacing="125%"><tspan
         sodipodi:role="line"
         id="tspan3340"
         x="44.285713"
         y="96.647919" /></text>
    <text
       xml:space="preserve"
       style="font-style:normal;font-weight:normal;font-size:16.25px;line-height:125%;font-family:sans-serif;letter-spacing:0px;word-spacing:0px;fill:#000000;fill-opacity:1;stroke:none;stroke-width:1px;stroke-linecap:butt;stroke-linejoin:miter;stroke-opacity:1;"
       x="57.142857"
       y="68.076492"
       id="text3346"
       sodipodi:linespacing="125%"><tspan
         sodipodi:role="line"
         id="tspan3348"
         x="57.142857"
         y="68.076492" /></text>
    <text
       xml:space="preserve"
       style="font-style:normal;font-weight:normal;font-size:40px;line-height:125%;font-family:sans-serif;letter-spacing:0px;word-spacing:0px;fill:#000000;fill-opacity:1;stroke:none;stroke-width:1px;stroke-linecap:butt;stroke-linejoin:miter;stroke-opacity:1"
       x="55.714287"
       y="62.362206"
       id="text3350"
       sodipodi:linespacing="125%"><tspan
         sodipodi:role="line"
         id="tspan3352"
         x="55.714287"
         y="62.362206" /></text>
    <path
       style="opacity:1;fill:#000000;fill-opacity:1;stroke:#000000;stroke-width:5;stroke-miterlimit:4;stroke-dasharray:none;stroke-opacity:1"
       id="path3394-6-21"
       d="m 119.72229,33.688967 c 0,0.61328 0,1.22656 0,1.83984 0,3.57143 -5.05076,3.57143 -5.05076,0 l 0,0 c 0,-0.61328 0,-1.22656 0,-1.83984 0,-3.57143 5.05076,-3.57143 5.05076,0 z"
       inkscape:connector-curvature="0" />
    <path
       style="opacity:1;fill:#000000;fill-opacity:1;stroke:#000000;stroke-width:5;stroke-miterlimit:4;stroke-dasharray:none;stroke-opacity:1"
       id="path3394-8"
       d="m 249.05166,33.249525 c 0,0.61328 0,1.22656 0,1.83984 0,3.57143 -5.05076,3.57143 -5.05076,0 l 0,0 c 0,-0.61328 0,-1.22656 0,-1.83984 0,-3.57142 5.05076,-3.57142 5.05076,0 z"
       inkscape:connector-curvature="0" />
    <path
       style="fill:none;fill-rule:evenodd;stroke:#000000;stroke-width:0.9651792px;stroke-linecap:butt;stroke-linejoin:miter;stroke-opacity:1"
       d="M 27.858087,34.862829 340.8105,34.147295"
       id="path6571"
       inkscape:connector-curvature="0"
       sodipodi:nodetypes="cc" />
    <path
       style="opacity:1;fill:#ff0000;fill-opacity:1;stroke:#ff0000;stroke-width:5;stroke-miterlimit:4;stroke-dasharray:none;stroke-opacity:1"
       id="path3394-0"
       d="m 54.311097,33.942285 c 0,0.613279 0,1.226559 0,1.839839 0,3.57143 -5.050764,3.57143 -5.050764,0 l 0,0 c 0,-0.61328 0,-1.22656 0,-1.839839 0,-3.57142 5.050764,-3.57142 5.050764,0 z"
       inkscape:connector-curvature="0" />
    <path
       style="opacity:1;fill:#000000;fill-opacity:1;stroke:#ff0000;stroke-width:5;stroke-miterlimit:4;stroke-dasharray:none;stroke-opacity:1"
       id="path3394-6-21-1-4"
       d="m 314.66824,33.227998 c 0,0.61328 0,1.226557 0,1.839837 0,3.57143 -5.05076,3.57143 -5.05076,0 l 0,0 c 0,-0.61328 0,-1.226557 0,-1.839837 0,-3.57143 5.05076,-3.57143 5.05076,0 z"
       inkscape:connector-curvature="0" />
    <path
       style="opacity:1;fill:#008000;fill-opacity:1;stroke:#0000ff;stroke-width:5;stroke-miterlimit:4;stroke-dasharray:none;stroke-opacity:1"
       id="path3394-6-4-7"
       d="m 186.36466,33.763714 c 0,0.61328 0,1.22656 0,1.83984 0,3.571429 -5.05076,3.571429 -5.05076,0 l 0,0 c 0,-0.61328 0,-1.22656 0,-1.83984 0,-3.57143 5.05076,-3.57143 5.05076,0 z"
       inkscape:connector-curvature="0" />
    <path
       style="opacity:1;fill:#000000;fill-opacity:1;stroke:#000000;stroke-width:5;stroke-miterlimit:4;stroke-dasharray:none;stroke-opacity:1"
       id="path3394-6-21-1"
       d="m 121.21957,124.28596 c 0,0.61328 0,1.22656 0,1.83984 0,3.57143 -5.05076,3.57143 -5.05076,0 l 0,0 c 0,-0.61328 0,-1.22656 0,-1.83984 0,-3.57143 5.05076,-3.57143 5.05076,0 z"
       inkscape:connector-curvature="0" />
    <path
       style="opacity:1;fill:#000000;fill-opacity:1;stroke:#000000;stroke-width:5;stroke-miterlimit:4;stroke-dasharray:none;stroke-opacity:1"
       id="path3394-8-2"
       d="m 250.54894,123.84651 c 0,0.61328 0,1.22656 0,1.83984 0,3.57143 -5.05076,3.57143 -5.05076,0 l 0,0 c 0,-0.61328 0,-1.22656 0,-1.83984 0,-3.57142 5.05076,-3.57142 5.05076,0 z"
       inkscape:connector-curvature="0" />
    <path
       style="fill:none;fill-rule:evenodd;stroke:#000000;stroke-width:0.9651792px;stroke-linecap:butt;stroke-linejoin:miter;stroke-opacity:1"
       d="m 30.426803,96.174103 88.441247,29.079877 68.21311,19.48764 60.35682,-19.78329 88.79838,-31.642624"
       id="path6571-4"
       inkscape:connector-curvature="0"
       sodipodi:nodetypes="ccccc" />
    <path
       style="opacity:1;fill:#ff0000;fill-opacity:1;stroke:#ff0000;stroke-width:5;stroke-miterlimit:4;stroke-dasharray:none;stroke-opacity:1"
       id="path3394-0-7"
       d="m 55.808384,102.21785 c 0,0.61328 0,1.22656 0,1.83984 0,3.57143 -5.050764,3.57143 -5.050764,0 l 0,0 c 0,-0.61328 0,-1.22656 0,-1.83984 0,-3.571428 5.050764,-3.571428 5.050764,0 z"
       inkscape:connector-curvature="0" />
    <path
       style="opacity:1;fill:#000000;fill-opacity:1;stroke:#ff0000;stroke-width:5;stroke-miterlimit:4;stroke-dasharray:none;stroke-opacity:1"
       id="path3394-6-21-1-4-5"
       d="m 315.98695,100.43213 c 0,0.61328 0,1.22656 0,1.83984 0,3.57143 -5.05076,3.57143 -5.05076,0 l 0,0 c 0,-0.61328 0,-1.22656 0,-1.83984 0,-3.571433 5.05076,-3.571433 5.05076,0 z"
       inkscape:connector-curvature="0" />
    <path
       style="opacity:1;fill:#008000;fill-opacity:1;stroke:#0000ff;stroke-width:5;stroke-miterlimit:4;stroke-dasharray:none;stroke-opacity:1"
       id="path3394-6-4-7-4"
       d="m 189.46908,136.68213 c 0,0.61328 0,1.22656 0,1.83984 0,3.57143 -5.05076,3.57143 -5.05076,0 l 0,0 c 0,-0.61328 0,-1.22656 0,-1.83984 0,-3.57143 5.05076,-3.57143 5.05076,0 z"
       inkscape:connector-curvature="0" />
    <path
       style="opacity:1;fill:#000000;fill-opacity:1;stroke:#000000;stroke-width:5;stroke-miterlimit:4;stroke-dasharray:none;stroke-opacity:1"
       id="path3394-6-21-9"
       d="m 122.24625,219.57871 c 0,0.61328 0,1.22656 0,1.83984 0,3.57143 -5.05076,3.57143 -5.05076,0 l 0,0 c 0,-0.61328 0,-1.22656 0,-1.83984 0,-3.57143 5.05076,-3.57143 5.05076,0 z"
       inkscape:connector-curvature="0" />
    <path
       style="opacity:1;fill:#000000;fill-opacity:1;stroke:#000000;stroke-width:5;stroke-miterlimit:4;stroke-dasharray:none;stroke-opacity:1"
       id="path3394-8-3"
       d="m 251.57561,219.13926 c 0,0.61328 0,1.22656 0,1.83984 0,3.57143 -5.05076,3.57143 -5.05076,0 l 0,0 c 0,-0.61328 0,-1.22656 0,-1.83984 0,-3.57142 5.05076,-3.57142 5.05076,0 z"
       inkscape:connector-curvature="0" />
    <path
       style="fill:none;fill-rule:evenodd;stroke:#000000;stroke-width:0.9651792px;stroke-linecap:butt;stroke-linejoin:miter;stroke-opacity:1"
       d="m 32.882044,250.75257 87.178816,-30.20622 66.07108,-21.5805 63.21723,21.2832 86.84243,33.35941"
       id="path6571-2"
       inkscape:connector-curvature="0"
       sodipodi:nodetypes="ccccc" />
    <path
       style="opacity:1;fill:#ff0000;fill-opacity:1;stroke:#ff0000;stroke-width:5;stroke-miterlimit:4;stroke-dasharray:none;stroke-opacity:1"
       id="path3394-0-3"
       d="m 57.013625,242.15345 c 0,0.61328 0,1.22656 0,1.83984 0,3.57143 -5.050764,3.57143 -5.050764,0 l 0,0 c 0,-0.61328 0,-1.22656 0,-1.83984 0,-3.57142 5.050764,-3.57142 5.050764,0 z"
       inkscape:connector-curvature="0" />
    <path
       style="opacity:1;fill:#000000;fill-opacity:1;stroke:#ff0000;stroke-width:5;stroke-miterlimit:4;stroke-dasharray:none;stroke-opacity:1"
       id="path3394-6-21-1-4-7"
       d="m 316.12076,244.11773 c 0,0.61328 0,1.22656 0,1.83984 0,3.57143 -5.05076,3.57143 -5.05076,0 l 0,0 c 0,-0.61328 0,-1.22656 0,-1.83984 0,-3.57143 5.05076,-3.57143 5.05076,0 z"
       inkscape:connector-curvature="0" />
    <path
       style="opacity:1;fill:#008000;fill-opacity:1;stroke:#0000ff;stroke-width:5;stroke-miterlimit:4;stroke-dasharray:none;stroke-opacity:1"
       id="path3394-6-4-7-1"
       d="m 188.71005,204.65345 c 0,0.61328 0,1.22656 0,1.83984 0,3.57143 -5.05076,3.57143 -5.05076,0 l 0,0 c 0,-0.61328 0,-1.22656 0,-1.83984 0,-3.57143 5.05076,-3.57143 5.05076,0 z"
       inkscape:connector-curvature="0" />
  </g>
</svg>
